<svg xmlns="http://www.w3.org/2000/svg" width="1024" height="1024" viewBox="0 0 1024 1024">
  <defs>
    <linearGradient id="bg" x1="0" y1="0" x2="1" y2="1">
      <stop offset="0%" stop-color="#fde68a"/>
      <stop offset="48%" stop-color="#fca5a5"/>
      <stop offset="100%" stop-color="#93c5fd"/>
    </linearGradient>
    <filter id="shadow" x="-20%" y="-20%" width="140%" height="140%">
      <feDropShadow dx="0" dy="16" stdDeviation="18" flood-color="#334155" flood-opacity="0.22"/>
    </filter>
  </defs>
  <rect width="1024" height="1024" fill="url(#bg)"/>
  <circle cx="146" cy="156" r="74" fill="#ffffff" opacity="0.48"/>
  <circle cx="850" cy="214" r="116" fill="#ffffff" opacity="0.18"/>
  <circle cx="824" cy="802" r="152" fill="#ffffff" opacity="0.18"/>
  <rect x="80" y="74" width="864" height="876" rx="44" fill="rgba(255,255,255,0.30)" stroke="rgba(255,255,255,0.62)" stroke-width="2" filter="url(#shadow)"/>
  <text x="850" y="96" direction="rtl" unicode-bidi="plaintext" text-anchor="end" font-family="Arial, Tahoma, sans-serif" font-size="25" font-weight="700" fill="#0f172a">منشور Facebook</text>
  <text x="850" y="128" direction="rtl" unicode-bidi="plaintext" text-anchor="end" font-family="Arial, Tahoma, sans-serif" font-size="48" font-weight="700" fill="#ffffff">ورشة عمل حول البيئة لمركز</text>
  <text x="850" y="184" direction="rtl" unicode-bidi="plaintext" text-anchor="end" font-family="Arial, Tahoma, sans-serif" font-size="48" font-weight="700" fill="#ffffff">الذكاء الاصطناعي</text>
    <g id="generated-scene-general">
    <ellipse cx="512" cy="724" rx="318" ry="70" fill="#334155" opacity="0.12"/>
    <rect x="274" y="340" width="476" height="296" rx="36" fill="#ffffff" opacity="0.74"/>
    <path d="M330 576 L440 464 L520 536 L612 424 L704 576Z" fill="#38bdf8" opacity="0.86"/>
    <circle cx="650" cy="398" r="42" fill="#facc15"/>
    <circle cx="386" cy="674" r="64" fill="#f8c7a1"/>
    <path d="M314 790 C336 706 436 706 460 790Z" fill="#2563eb"/>
    <circle cx="634" cy="674" r="64" fill="#f4b183"/>
    <path d="M562 790 C584 706 684 706 708 790Z" fill="#059669"/>
  </g>
  <text x="850" y="836" direction="rtl" unicode-bidi="plaintext" text-anchor="end" font-family="Arial, Tahoma, sans-serif" font-size="24" font-weight="400" fill="#ffffff">لقطة لورشة عمل تفاعلية يظهر فيها الحاضرون وخلفهم</text>
  <text x="850" y="866" direction="rtl" unicode-bidi="plaintext" text-anchor="end" font-family="Arial, Tahoma, sans-serif" font-size="24" font-weight="400" fill="#ffffff">شاشة عرض تجمع بين رموز التكنولوجيا وعناصر</text>
  <rect x="132" y="884" width="760" height="52" rx="26" fill="rgba(15,23,42,0.14)"/>
  <text x="850" y="918" direction="rtl" unicode-bidi="plaintext" text-anchor="end" font-family="Arial, Tahoma, sans-serif" font-size="24" font-weight="700" fill="#0f172a">#الذكاء_الاصطناعي  #البيئة  #ورشة_عمل</text>
</svg>