<svg xmlns="http://www.w3.org/2000/svg" width="1024" height="1024" viewBox="0 0 1024 1024">
  <defs>
    <linearGradient id="bg" x1="0" y1="0" x2="1" y2="1">
      <stop offset="0%" stop-color="#fde68a"/>
      <stop offset="48%" stop-color="#fca5a5"/>
      <stop offset="100%" stop-color="#93c5fd"/>
    </linearGradient>
    <filter id="shadow" x="-20%" y="-20%" width="140%" height="140%">
      <feDropShadow dx="0" dy="16" stdDeviation="18" flood-color="#334155" flood-opacity="0.22"/>
    </filter>
  </defs>
  <rect width="1024" height="1024" fill="url(#bg)"/>
  <circle cx="146" cy="156" r="74" fill="#ffffff" opacity="0.48"/>
  <circle cx="850" cy="214" r="116" fill="#ffffff" opacity="0.18"/>
  <circle cx="824" cy="802" r="152" fill="#ffffff" opacity="0.18"/>
  <rect x="80" y="74" width="864" height="876" rx="44" fill="rgba(255,255,255,0.30)" stroke="rgba(255,255,255,0.62)" stroke-width="2" filter="url(#shadow)"/>
  <text x="850" y="96" direction="rtl" unicode-bidi="plaintext" text-anchor="end" font-family="Arial, Tahoma, sans-serif" font-size="25" font-weight="700" fill="#0f172a">منشور Facebook</text>
  <text x="850" y="128" direction="rtl" unicode-bidi="plaintext" text-anchor="end" font-family="Arial, Tahoma, sans-serif" font-size="48" font-weight="700" fill="#ffffff">ابنتي الجميلة ترف</text>
    <g id="generated-scene-couple">
    <ellipse cx="512" cy="725" rx="310" ry="64" fill="#334155" opacity="0.12"/>
    <path d="M220 620 C290 448 390 372 500 412 C610 372 742 448 806 620 C742 708 314 708 220 620Z" fill="#fff7ed" opacity="0.86"/>
    <circle cx="405" cy="406" r="92" fill="#f8c7a1"/>
    <path d="M315 390 C322 294 408 258 486 316 C476 390 410 430 315 390Z" fill="#1f2937"/>
    <path d="M330 534 C354 476 455 476 482 534 L520 702 L286 702Z" fill="#2563eb"/>
    <circle cx="622" cy="406" r="92" fill="#f4b183"/>
    <path d="M546 350 C576 276 696 292 728 382 C704 446 616 446 546 350Z" fill="#7c2d12"/>
    <path d="M548 534 C578 474 684 474 718 534 L754 702 L512 702Z" fill="#db2777"/>
    <path d="M374 420 Q405 446 436 420" fill="none" stroke="#7c2d12" stroke-width="7" stroke-linecap="round"/>
    <path d="M592 420 Q622 448 654 420" fill="none" stroke="#7c2d12" stroke-width="7" stroke-linecap="round"/>
    <path d="M462 556 C498 604 540 604 578 556" fill="none" stroke="#f97316" stroke-width="18" stroke-linecap="round"/>
    <path d="M512 292 C538 248 604 250 620 306 C616 358 546 372 512 420 C478 372 408 358 404 306 C420 250 486 248 512 292Z" fill="#ef4444" opacity="0.92"/>
  </g>
  <text x="850" y="836" direction="rtl" unicode-bidi="plaintext" text-anchor="end" font-family="Arial, Tahoma, sans-serif" font-size="24" font-weight="400" fill="#ffffff">صورة فوتوغرافية دافئة تجمع والداً مع ابنته</text>
  <text x="850" y="866" direction="rtl" unicode-bidi="plaintext" text-anchor="end" font-family="Arial, Tahoma, sans-serif" font-size="24" font-weight="400" fill="#ffffff">الصغيرة ترف وهما يبتسمان بسعادة في أجواء عائلية</text>
  <rect x="132" y="884" width="760" height="52" rx="26" fill="rgba(15,23,42,0.14)"/>
  <text x="850" y="918" direction="rtl" unicode-bidi="plaintext" text-anchor="end" font-family="Arial, Tahoma, sans-serif" font-size="24" font-weight="700" fill="#0f172a">#ترف  #ابنتي  #جمال  #عائلة</text>
</svg>